<svg version="1.1" viewBox="0 0 16 16" xmlns="http://www.w3.org/2000/svg" xmlns:osb="http://www.openswatchbook.org/uri/2009/osb">
    <title>Gnome Symbolic Icon Theme</title>
    <defs>
        <clipPath id="clipPath17189-2">
            <circle cx="280" cy="20" r="200" enable-background="new" fill="url(#radialGradient17193)" style="paint-order:normal"/>
        </clipPath>
    </defs>
    <g transform="translate(-780.98 527)" fill="#2e3436">
        <path d="m788.5-527c-4.1303 0-7.5 3.3697-7.5 7.5s3.3697 7.5 7.5 7.5 7.5-3.3697 7.5-7.5-3.3697-7.5-7.5-7.5zm0 2c3.0494 0 5.5 2.4506 5.5 5.5s-2.4506 5.5-5.5 5.5-5.5-2.4506-5.5-5.5 2.4506-5.5 5.5-5.5z" color="#000000" color-rendering="auto" dominant-baseline="auto" image-rendering="auto" shape-rendering="auto" solid-color="#000000" style="font-feature-settings:normal;font-variant-alternates:normal;font-variant-caps:normal;font-variant-ligatures:normal;font-variant-numeric:normal;font-variant-position:normal;isolation:auto;mix-blend-mode:normal;paint-order:normal;shape-padding:0;text-decoration-color:#000000;text-decoration-line:none;text-decoration-style:solid;text-indent:0;text-orientation:mixed;text-transform:none;white-space:normal"/>
        <path transform="matrix(.027587 0 0 .027587 780.78 -520.04)" d="m152-12v-32l32-32h32v-32l-32-32h-128v128l32 32 32 32v32l32 32v32 32l32 32v-32l32-32v-32l32-32-32-32-32-32h-32-32v-32zm128-64 32 32 32-32h32 32l33 48v16l31 32v-160h-128v32h-32zm32 32-32 32v32l32 32h32l17 24v32 32l47 40 32-32v-96l32-32-32.95 1.8602-31.05-33.86v-8h-39l-16-24z" clip-path="url(#clipPath17189-2)" enable-background="new" opacity=".5" style="paint-order:normal"/>
    </g>
</svg>
