<svg version="1.1" viewBox="0 0 16 16" xmlns="http://www.w3.org/2000/svg" xmlns:xlink="http://www.w3.org/1999/xlink">
    <g transform="translate(0 -229.27)">
        <g transform="matrix(3.7795 0 0 3.7795 -.5 -636.25)">
            <path d="m0.66146 229.8c-0.14658 0-0.26458 0.118-0.26458 0.26458v2.3812c0 0.14658 0.118 0.26459 0.26458 0.26459h3.175c0.14658 0 0.26458-0.11801 0.26458-0.26459v-2.3812c0-0.14658-0.118-0.26458-0.26458-0.26458zm0.13229 0.26458h2.9104c0.07329 0 0.13229 0.059 0.13229 0.1323v2.1167c0 0.0733-0.059002 0.13229-0.13229 0.13229h-2.9104c-0.07329 0-0.13229-0.059-0.13229-0.13229v-2.1167c0-0.0733 0.059002-0.1323 0.13229-0.1323z" enable-background="new" style="paint-order:stroke fill markers"/>
            <g transform="matrix(.11023 0 0 .11024 2.0285 230.37)" enable-background="new">
                <path d="m6 12a2 2 0 0 1-2 2 2 2 0 0 1-2-2 2 2 0 0 1 2-2 2 2 0 0 1 2 2z" color="#000000" overflow="visible"/>
                <path d="m2 6h1.014v1.014h-1.014zm7.014 7.014h0.986v0.986h-0.986zm4 0h0.986v0.986h-0.986zm-11.014-11.014h1.014v1.014h-1.014z"/>
                <path d="m3.014 8.014c2.774 0 5 2.227 5 5h2c0-3.854-3.145-7-7-7z" color="#000000" font-family="sans-serif" font-weight="400" overflow="visible" style="font-feature-settings:normal;font-variant-alternates:normal;font-variant-caps:normal;font-variant-ligatures:normal;font-variant-numeric:normal;font-variant-position:normal;isolation:auto;mix-blend-mode:normal;shape-padding:0;text-decoration-color:#000000;text-decoration-line:none;text-decoration-style:solid;text-indent:0;text-orientation:mixed;text-transform:none" white-space="normal"/>
                <path d="m 3.014,4.028 a 8.972,8.972 0 0 1 8.987,8.986 h 2 C 14,6.96 9.07,2.028 3.014,2.028 Z" color="#000000" font-family="sans-serif" font-weight="400" overflow="visible" style="font-feature-settings:normal;font-variant-alternates:normal;font-variant-caps:normal;font-variant-ligatures:normal;font-variant-numeric:normal;font-variant-position:normal;isolation:auto;mix-blend-mode:normal;shape-padding:0;text-decoration-color:#000000;text-decoration-line:none;text-decoration-style:solid;text-indent:0;text-orientation:mixed;text-transform:none" white-space="normal"/>
                <path d="m4 7a1 1 0 0 1-1 1 1 1 0 0 1-1-1 1 1 0 0 1 1-1 1 1 0 0 1 1 1zm0-4a1 1 0 0 1-1 1 1 1 0 0 1-1-1 1 1 0 0 1 1-1 1 1 0 0 1 1 1zm6 10a1 1 0 0 1-1 1 1 1 0 0 1-1-1 1 1 0 0 1 1-1 1 1 0 0 1 1 1zm4 0a1 1 0 0 1-1 1 1 1 0 0 1-1-1 1 1 0 0 1 1-1 1 1 0 0 1 1 1z" color="#000000" overflow="visible"/>
            </g>
            <rect x=".92604" y="230.32" width="1.0583" height=".26458" ry="0" enable-background="new" stroke-width=".049416"/>
            <rect x=".92604" y="231.38" width=".79375" height=".26458" ry="0" enable-background="new" stroke-width=".040506"/>
            <rect x=".92604" y="230.85" width="1.0583" height=".26458" ry="0" enable-background="new" stroke-width=".046772"/>
            <rect x=".92604" y="231.91" width="1.0583" height=".26458" ry="0" enable-background="new" stroke-width=".046772"/>
        </g>
    </g>
</svg>
